<?xml version="1.0" encoding="utf-8"?>
<!-- Generator: Adobe Illustrator 19.0.0, SVG Export Plug-In . SVG Version: 6.00 Build 0)  -->
<svg version="1.1" id="Layer_1" xmlns="http://www.w3.org/2000/svg" xmlns:xlink="http://www.w3.org/1999/xlink" x="0px" y="0px"
	 viewBox="0 0 512 512" style="enable-background:new 0 0 512 512;" xml:space="preserve">
<g id="XMLID_1_">
	<path id="XMLID_7_" d="M348.9,228.4c38.6,0,70.1-30.7,70.1-68.5s-31.5-68.5-70.1-68.5s-69.3,30.7-69.3,68.5
		S310.4,228.4,348.9,228.4z M163.1,228.4c38.6,0,70.1-30.7,70.1-68.5s-31.5-68.5-70.1-68.5s-70.1,30.7-70.1,68.5
		C92.9,197.7,124.5,228.4,163.1,228.4z M163.1,278.8c-54.4,0-163.1,26-163.1,80.3v61.4h329.3v-61.4
		C329.3,304.8,217.4,278.8,163.1,278.8z M348.9,291.4c-7.1,0-11.8,0-19.7,0.8c26.8,19.7,36.2,32.3,36.2,66.2v61.4H512v-61.4
		C512,304.8,404.1,291.4,348.9,291.4L348.9,291.4z"/>
</g>
</svg>
